<svg width="19" height="19" viewBox="0 0 19 19" fill="white" xmlns="http://www.w3.org/2000/svg">
<path d="M16.9772 19C16.4363 19 15.928 18.7896 15.5461 18.4077L9.59479 12.4613C9.53769 12.4054 9.44689 12.4054 9.39019 12.4616L3.43924 18.4077C3.057 18.7896 2.54867 19 2.00821 19C1.50463 19 1.02247 18.8142 0.650137 18.4775C0.252033 18.1169 0.0252246 17.6126 0.011743 17.0584C-0.00253167 16.4721 0.226259 15.8988 0.639431 15.486L6.52852 9.60211C6.58482 9.54586 6.58482 9.45395 6.52812 9.39729L0.641414 3.51658C-0.156777 2.7191 -0.217841 1.46919 0.502236 0.670516C0.878531 0.253351 1.3944 0.0156509 1.95468 0.000992653C2.52051 -0.0164387 3.04273 0.196303 3.43924 0.592074L9.39058 6.53855C9.46394 6.61144 9.52064 6.61263 9.59439 6.53895L15.5465 0.592471C15.9775 0.161837 16.5707 -0.0505094 17.181 0.0105004C17.788 0.0715102 18.3321 0.40231 18.6747 0.918517C19.1989 1.70887 19.0736 2.78763 18.3769 3.4837L12.4569 9.39769C12.4002 9.45434 12.4002 9.54625 12.4569 9.6029L18.4082 15.5486C19.1973 16.337 19.1973 17.6198 18.4082 18.4081C18.0263 18.7896 17.518 19 16.9772 19ZM9.49289 11.6277C9.73278 11.6277 9.97307 11.7184 10.1555 11.9011L16.1072 17.8475C16.5723 18.3123 17.384 18.3119 17.8475 17.8475C18.0803 17.6154 18.2084 17.3068 18.2084 16.9784C18.2084 16.6495 18.0803 16.3409 17.8479 16.1088L11.8962 10.1627C11.531 9.79742 11.531 9.20317 11.8958 8.8383L17.8162 2.92352C18.2472 2.49289 18.3301 1.83406 18.0133 1.35628C17.8003 1.03459 17.4764 0.83651 17.1017 0.798874C16.7309 0.762427 16.3697 0.890785 16.1072 1.15265L10.1555 7.09873C9.80217 7.45251 9.184 7.4533 8.82991 7.09873L2.87857 1.15265C2.63749 0.911782 2.30996 0.792139 1.9757 0.792931C1.63509 0.801647 1.32105 0.94704 1.09186 1.20098C0.661636 1.67797 0.711201 2.46555 1.20249 2.9564L7.08959 8.83791C7.45478 9.20317 7.45478 9.79742 7.08999 10.1623L1.20011 16.0462C0.939595 16.3065 0.795262 16.6682 0.804382 17.0386C0.812709 17.3745 0.946732 17.6768 1.18266 17.8899C1.65135 18.3142 2.42931 18.2956 2.87857 17.8475L8.82991 11.9011C9.0127 11.7188 9.2526 11.6277 9.49289 11.6277Z" fill="white"/>
</svg>
