<svg width="22" height="22" viewBox="0 0 22 22" fill="none" xmlns="http://www.w3.org/2000/svg">
<path fill-rule="evenodd" clip-rule="evenodd" d="M10.8568 0C4.86295 0 0 4.86295 0 10.8568C0 16.8507 4.86295 21.7136 10.8568 21.7136C16.8389 21.7136 21.7136 16.8507 21.7136 10.8568C21.7136 4.86295 16.8389 0 10.8568 0ZM18.0277 5.00409C19.3645 6.63201 20.1042 8.66817 20.124 10.7745C19.8182 10.7157 16.7566 10.0914 13.6714 10.4804C13.6 10.3266 13.5412 10.162 13.4706 9.99732C13.2787 9.54441 13.0748 9.09671 12.859 8.65469C16.2735 7.26502 17.8278 5.26375 18.0277 5.00409ZM10.8568 1.60229C13.2118 1.60229 15.3669 2.4844 17.0036 3.93288C16.8389 4.16811 15.4375 6.04091 12.1406 7.27678C10.6207 4.48658 8.93788 2.20122 8.67822 1.84837C9.39234 1.68162 10.1235 1.59873 10.8568 1.60138V1.60229ZM6.91217 2.47264C7.15917 2.80287 8.80759 5.09909 10.3502 7.83048C6.01649 8.98492 2.18946 8.9614 1.7778 8.9614C2.37855 6.08796 4.32192 3.69765 6.91217 2.47264ZM1.57786 10.8686V10.5863C1.97866 10.5981 6.47609 10.6569 11.1047 9.2672C11.3752 9.78561 11.6222 10.3149 11.8575 10.8451C11.7398 10.8803 11.6105 10.9156 11.4928 10.9509C6.71223 12.4935 4.16811 16.7086 3.95641 17.0624C2.42506 15.3629 1.57768 13.1562 1.57786 10.8686ZM10.8568 20.1358C8.7135 20.1358 6.73575 19.4057 5.16966 18.1816C5.33432 17.8396 7.21797 14.2125 12.4464 12.3876C12.47 12.3759 12.4826 12.3759 12.5052 12.3641C13.8126 15.7433 14.3419 18.5814 14.4839 19.3939C13.3647 19.877 12.1406 20.1358 10.8568 20.1358ZM16.0265 18.5462C15.9324 17.9807 15.4375 15.2728 14.2242 11.9398C17.133 11.4811 19.6762 12.2347 19.9946 12.3406C19.5938 14.9191 18.1101 17.1447 16.0265 18.5462Z" fill="#959595"/>
</svg>
