<svg width="22" height="22" viewBox="0 0 22 22" fill="none" xmlns="http://www.w3.org/2000/svg">
<path fill-rule="evenodd" clip-rule="evenodd" d="M15.7559 13.0119C15.4863 12.8771 14.1645 12.2275 13.9184 12.137C13.6723 12.0475 13.4932 12.0031 13.3132 12.2727C13.134 12.5405 12.6192 13.1467 12.4627 13.3259C12.3053 13.5059 12.1488 13.5276 11.8801 13.3937C11.6113 13.258 10.7446 12.9748 9.71774 12.0592C8.91886 11.3463 8.37874 10.466 8.22222 10.1964C8.0657 9.92768 8.20503 9.78201 8.33983 9.64811C8.46107 9.52778 8.60854 9.33417 8.74334 9.17765C8.87815 9.02023 8.92248 8.90804 9.01205 8.728C9.10252 8.54886 9.05729 8.39234 8.98943 8.25754C8.92248 8.12273 8.38507 6.79911 8.1607 6.26079C7.94265 5.73695 7.72099 5.80842 7.55633 5.79938C7.39891 5.79214 7.21977 5.79033 7.04064 5.79033C6.8615 5.79033 6.57017 5.85728 6.32409 6.12689C6.07709 6.3956 5.38316 7.0461 5.38316 8.36973C5.38316 9.69245 6.3458 10.9708 6.48061 11.1509C6.61541 11.33 8.37602 14.046 11.073 15.2104C11.7154 15.4873 12.2157 15.6528 12.6056 15.7759C13.2498 15.9812 13.8361 15.9523 14.2993 15.8826C14.815 15.8057 15.8898 15.2321 16.1142 14.6042C16.3377 13.9764 16.3377 13.438 16.2707 13.3259C16.2038 13.2137 16.0246 13.1467 15.755 13.0119H15.7559ZM10.8505 19.7097H10.8468C9.24496 19.7099 7.67248 19.2793 6.29423 18.4629L5.96853 18.2693L2.58301 19.1578L3.48684 15.8573L3.27423 15.5189C2.37867 14.0934 1.90473 12.4435 1.90718 10.76C1.90899 5.82923 5.92057 1.81765 10.8541 1.81765C13.2426 1.81765 15.4881 2.74952 17.1764 4.43956C18.0091 5.26882 18.6691 6.25497 19.1182 7.34095C19.5673 8.42693 19.7966 9.59119 19.7929 10.7664C19.791 15.6972 15.7795 19.7097 10.8505 19.7097ZM18.4611 3.15575C17.4642 2.15233 16.2782 1.35672 14.9716 0.815021C13.665 0.273324 12.264 -0.00368792 10.8496 3.70738e-05C4.91994 3.70738e-05 0.0922828 4.82679 0.0904733 10.7591C0.0895686 12.6554 0.584458 14.5065 1.52629 16.1378L0 21.7136L5.70344 20.2172C7.28118 21.0768 9.04923 21.5272 10.8459 21.5273H10.8505C16.7801 21.5273 21.6077 16.7005 21.6096 10.7673C21.6139 9.35342 21.3379 7.95273 20.7975 6.64624C20.2571 5.33974 19.463 4.15337 18.4611 3.15575Z" fill="#959595"/>
</svg>
