<svg width="29" height="18" viewBox="0 0 29 18" fill="none" xmlns="http://www.w3.org/2000/svg">
<path d="M18.9343 1.19067H26.1707V2.92648H18.9343V1.19067ZM11.6834 8.05858C13.2831 7.30185 14.121 6.15063 14.121 4.37179C14.121 0.853556 11.473 0 8.41526 0H0V17.6593H8.65103C11.8938 17.6593 14.9371 16.1172 14.9371 12.5308C14.9371 10.3144 13.8779 8.67543 11.6834 8.05858ZM3.9247 3.01255H7.60638C9.02464 3.01255 10.2978 3.40347 10.2978 5.03168C10.2978 6.53078 9.30757 7.13329 7.90381 7.13329H3.9247V3.01255ZM8.1142 14.6611H3.92108V9.79797H8.19762C9.9242 9.79797 11.016 10.5117 11.016 12.3192C11.016 14.098 9.71382 14.6611 8.1142 14.6611ZM29 11.4513C29 7.66766 26.762 4.51524 22.7139 4.51524C18.7784 4.51524 16.1014 7.44531 16.1014 11.2863C16.1014 15.2672 18.6369 18 22.7139 18C25.8008 18 27.7994 16.6264 28.7606 13.6964H25.6303C25.2893 14.7902 23.9037 15.364 22.8264 15.364C20.7443 15.364 19.6562 14.159 19.6562 12.1112H28.9746C28.9855 11.8996 29 11.6772 29 11.4513ZM19.6562 9.8948C19.7686 8.21279 20.9039 7.16198 22.6015 7.16198C24.3861 7.16198 25.2784 8.19845 25.4344 9.8948H19.6562Z" fill="#959595"/>
</svg>
