<svg width="27" height="22" viewBox="0 0 27 22" fill="none" xmlns="http://www.w3.org/2000/svg">
<path d="M26.7101 2.57563C25.7279 3.01088 24.6727 3.30497 23.5634 3.4379C24.708 2.75302 25.5643 1.6751 25.9726 0.405273C24.8972 1.04402 23.7203 1.49362 22.4929 1.73455C21.6676 0.853303 20.5744 0.269201 19.3831 0.0729246C18.1917 -0.123351 16.9689 0.0791798 15.9045 0.649074C14.8401 1.21897 13.9936 2.12434 13.4964 3.22463C12.9993 4.32492 12.8793 5.55856 13.1551 6.73402C10.9761 6.62462 8.84452 6.05827 6.8986 5.07173C4.95268 4.08519 3.23594 2.70052 1.8598 1.00756C1.38927 1.81924 1.11871 2.76032 1.11871 3.76257C1.11818 4.66482 1.34037 5.55325 1.76555 6.34904C2.19074 7.14483 2.80578 7.82336 3.5561 8.32444C2.68593 8.29675 1.83495 8.06163 1.07401 7.63863V7.70921C1.07392 8.97466 1.51164 10.2012 2.31291 11.1806C3.11418 12.1601 4.22964 12.8321 5.47002 13.0828C4.66279 13.3012 3.81647 13.3334 2.99498 13.1769C3.34494 14.2657 4.02663 15.2179 4.94462 15.9C5.86261 16.5822 6.97094 16.9602 8.11444 16.9812C6.17327 18.505 3.77594 19.3316 1.3081 19.328C0.870945 19.3281 0.434162 19.3026 0 19.2515C2.505 20.8622 5.42101 21.7169 8.39912 21.7136C18.4804 21.7136 23.9916 13.3639 23.9916 6.12232C23.9916 5.88705 23.9857 5.64943 23.9751 5.41416C25.0471 4.63892 25.9725 3.67893 26.7078 2.57916L26.7101 2.57563Z" fill="#959595"/>
</svg>
